<svg width="24" height="28" viewBox="0 0 24 28" fill="none" xmlns="http://www.w3.org/2000/svg">
<path d="M12 0L24 6V22L12 28L0 22V6L12 0Z" fill="url(#paint0_linear_12_6)"/>
<path d="M13.8215 11.7464C13.7817 11.3454 13.611 11.0339 13.3094 10.8118C13.0078 10.5897 12.5985 10.4787 12.0814 10.4787C11.7301 10.4787 11.4334 10.5284 11.1915 10.6278C10.9495 10.724 10.7639 10.8582 10.6347 11.0305C10.5087 11.2029 10.4458 11.3984 10.4458 11.6172C10.4391 11.7995 10.4772 11.9586 10.5601 12.0945C10.6463 12.2304 10.7639 12.348 10.9131 12.4474C11.0622 12.5436 11.2346 12.6281 11.4301 12.701C11.6257 12.7706 11.8345 12.8303 12.0566 12.88L12.9713 13.0987C13.4155 13.1982 13.8231 13.3307 14.1943 13.4964C14.5655 13.6622 14.887 13.866 15.1588 14.108C15.4306 14.3499 15.6411 14.6349 15.7902 14.9631C15.9427 15.2912 16.0206 15.6674 16.0239 16.0916C16.0206 16.7147 15.8615 17.255 15.5466 17.7124C15.2351 18.1664 14.7843 18.5194 14.1943 18.7713C13.6077 19.0199 12.9001 19.1442 12.0715 19.1442C11.2495 19.1442 10.5336 19.0182 9.92374 18.7663C9.31721 18.5144 8.84325 18.1416 8.50186 17.6477C8.1638 17.1506 7.98648 16.5357 7.9699 15.8033H10.053C10.0762 16.1446 10.174 16.4297 10.3463 16.6584C10.522 16.8838 10.7557 17.0545 11.0473 17.1705C11.3423 17.2831 11.6754 17.3395 12.0466 17.3395C12.4112 17.3395 12.7277 17.2865 12.9962 17.1804C13.268 17.0743 13.4784 16.9268 13.6276 16.7379C13.7767 16.549 13.8513 16.3319 13.8513 16.0866C13.8513 15.858 13.7834 15.6657 13.6475 15.5099C13.5149 15.3542 13.3193 15.2216 13.0608 15.1122C12.8056 15.0028 12.4924 14.9034 12.1212 14.8139L11.0125 14.5355C10.1541 14.3267 9.4763 14.0002 8.97914 13.5561C8.48198 13.112 8.23506 12.5137 8.23837 11.7614C8.23506 11.1449 8.39912 10.6063 8.73056 10.1456C9.06531 9.6849 9.52435 9.32528 10.1077 9.06676C10.691 8.80824 11.3539 8.67898 12.0963 8.67898C12.852 8.67898 13.5116 8.80824 14.075 9.06676C14.6418 9.32528 15.0826 9.6849 15.3975 10.1456C15.7123 10.6063 15.8747 11.1399 15.8847 11.7464H13.8215Z" fill="white"/>
<defs>
<linearGradient id="paint0_linear_12_6" x1="0" y1="0" x2="0" y2="28" gradientUnits="userSpaceOnUse">
<stop stop-color="#10B981"/>
<stop offset="1" stop-color="#10B981"/>
</linearGradient>
</defs>
</svg>
